<?xml version="1.0" encoding="UTF-8"?>
<svg width="19px" height="16px" viewBox="0 0 19 16" version="1.1" xmlns="http://www.w3.org/2000/svg" xmlns:xlink="http://www.w3.org/1999/xlink">
    <!-- Generator: Sketch 58 (84663) - https://sketch.com -->
    <title>Audio Icon</title>
    <desc>Audio icon for the Digital Hub</desc>
    <g id="Symbols" stroke="none" stroke-width="1" fill="none" fill-rule="evenodd">
        <g id="Content-Block/Media-Type/Listen" transform="translate(-4.000000, -6.000000)" fill="#FFFFFF">
            <g id="Icon">
                <g id="Group" transform="translate(4.000000, 6.000000)">
                    <rect id="Rectangle" x="0" y="5" width="6" height="6"></rect>
                    <polygon id="Triangle" transform="translate(6.000000, 8.000000) rotate(-90.000000) translate(-6.000000, -8.000000) " points="6 3 14 13 -2 13"></polygon>
                    <path d="M13.2928932,6.70710678 C14.0069384,7.42115199 14.0069384,8.57884801 13.2928932,9.29289322 C12.9023689,9.68341751 12.9023689,10.3165825 13.2928932,10.7071068 C13.6834175,11.0976311 14.3165825,11.0976311 14.7071068,10.7071068 C16.2022006,9.21201299 16.2022006,6.78798701 14.7071068,5.29289322 C14.3165825,4.90236893 13.6834175,4.90236893 13.2928932,5.29289322 C12.9023689,5.68341751 12.9023689,6.31658249 13.2928932,6.70710678 Z" id="Path-2" fill-rule="nonzero"></path>
                    <path d="M15.2928932,4.20710678 C17.2097936,6.12400713 17.3788122,9.17570368 15.6853224,11.292566 L15.2191312,11.875305 C14.8741216,12.3065669 14.944043,12.9358593 15.375305,13.2808688 C15.8065669,13.6258784 16.4358593,13.555957 16.7808688,13.124695 L17.24706,12.5419561 C19.5771756,9.6293116 19.3446185,5.43040498 16.7071068,2.79289322 C16.3165825,2.40236893 15.6834175,2.40236893 15.2928932,2.79289322 C14.9023689,3.18341751 14.9023689,3.81658249 15.2928932,4.20710678 Z" id="Path-2-Copy" fill-rule="nonzero"></path>
                </g>
            </g>
        </g>
    </g>
</svg>
