<svg width="37px" height="37px" viewBox="0 0 37 37" version="1.1" xmlns="http://www.w3.org/2000/svg" xmlns:xlink="http://www.w3.org/1999/xlink">
    <g id="Designs" stroke="none" stroke-width="1" fill="none" fill-rule="evenodd">
        <g id="Auth-homepage" transform="translate(-1226.000000, -114.000000)" fill="#000000">
            <g id="Group-10-Copy" transform="translate(677.000000, 104.000000)">
                <g id="Group-2">
                    <g id="Group-15" transform="translate(536.000000, 0.000000)">
                        <path d="M38.4842291,24.4410631 C38.4842291,30.5401187 33.5399488,35.4842291 27.4410631,35.4842291 C21.3421095,35.4842291 16.3978972,30.5401187 16.3978972,24.4410631 C16.3978972,18.3420925 21.3421095,13.3978972 27.4410631,13.3978972 C33.5399488,13.3978972 38.4842291,18.3420925 38.4842291,24.4410631 Z M38.783244,33.3805909 C40.723953,30.9217026 41.8821263,27.8167041 41.8821263,24.4410631 C41.8821263,16.4654848 35.4166075,10 27.4410631,10 C19.4655188,10 13,16.4654848 13,24.4410631 C13,32.4166075 19.4655188,38.8821263 27.4410631,38.8821263 C30.8167041,38.8821263 33.9218725,37.723953 36.3805909,35.783244 L47.0997673,46.5024204 C47.7632067,47.1658599 48.838981,47.1658599 49.5024204,46.5024204 C50.1658599,45.838981 50.1658599,44.7632067 49.5024204,44.0997673 L38.783244,33.3805909 Z" id="Shape"></path>
                    </g>
                </g>
            </g>
        </g>
    </g>
</svg>
