<?xml version="1.0" encoding="UTF-8"?>
<svg width="44px" height="39px" viewBox="0 0 44 39" version="1.1" xmlns="http://www.w3.org/2000/svg" xmlns:xlink="http://www.w3.org/1999/xlink">
    <!-- Generator: Sketch 52.6 (67491) - http://www.bohemiancoding.com/sketch -->
    <title>noun_like_1555605</title>
    <desc>Created with Sketch.</desc>
    <g id="Designs" stroke="none" stroke-width="1" fill="none" fill-rule="evenodd">
        <g id="Content-page" transform="translate(-30.000000, -1228.000000)" fill="#000000">
            <g id="Feedback" transform="translate(29.000000, 1166.000000)">
                <g id="noun_like_1555605" transform="translate(1.000000, 62.000000)">
                    <g id="Group">
                        <path d="M8.9216875,15.6096875 L1.7655,15.6096875 C1.09725,15.6096875 0.5726875,16.13425 0.5726875,16.8025 L0.5726875,35.8854375 C0.5726875,36.5536875 1.09725,37.07825 1.7655,37.07825 L8.9216875,37.07825 C9.5899375,37.07825 10.1138125,36.5536875 10.1138125,35.8854375 L10.1138125,16.8025 C10.1145,16.13425 9.5899375,15.6096875 8.9216875,15.6096875 Z" id="Path"></path>
                        <path d="M43.4273125,17.8701875 C43.4273125,15.926625 42.092875,13.9596875 39.5443125,13.9596875 L27.9895,13.9596875 C29.6401875,11.006875 30.1255625,6.8536875 28.978125,3.8149375 C28.13525,1.579875 26.5244375,0.2756875 24.4399375,0.143 L24.40625,0.14025 C23.0498125,0.0570625 21.8755625,1.0731875 21.7628125,2.4275625 C21.4658125,5.4415625 20.145125,10.7724375 18.2524375,12.665125 C16.6588125,14.25875 15.2948125,14.9263125 13.033625,16.0318125 C12.706375,16.192 12.348875,16.366625 11.97075,16.555 C11.977625,16.6368125 11.98175,16.718625 11.98175,16.8025 L11.98175,35.690875 C12.2546875,35.784375 12.5241875,35.8771875 12.788875,35.9679375 C16.520625,37.25425 19.7456875,38.3645625 24.6750625,38.3645625 L34.0168125,38.3645625 C36.5660625,38.3645625 37.8998125,36.3969375 37.8998125,34.4540625 C37.8998125,33.87725 37.7829375,33.2990625 37.55125,32.7696875 C38.4003125,32.6170625 39.1435,32.2086875 39.6941875,31.58375 C40.319125,30.8735625 40.6635625,29.929625 40.6635625,28.925875 C40.6635625,28.351125 40.5466875,27.7729375 40.3156875,27.2449375 C42.362375,26.8915625 43.428,25.135 43.428,23.398375 C43.428,22.3911875 43.069125,21.377125 42.36925,20.634625 C43.06775,19.8914375 43.4273125,18.877375 43.4273125,17.8701875 Z" id="Path"></path>
                    </g>
                </g>
            </g>
        </g>
    </g>
</svg>