<?xml version="1.0" encoding="utf-8"?>
<!-- Generator: Adobe Illustrator 21.0.2, SVG Export Plug-In . SVG Version: 6.00 Build 0)  -->
<svg version="1.1" id="Layer_1" xmlns="http://www.w3.org/2000/svg" xmlns:xlink="http://www.w3.org/1999/xlink" x="0px" y="0px"
	 viewBox="0 0 77.2 77.2" style="enable-background:new 0 0 77.2 77.2;" xml:space="preserve">
<style type="text/css">
	.st0{fill:#FFFFFF;}
</style>
<g>
	<path class="st0" d="M76.5,0.7c-1-1-2.6-1-3.5,0L39.1,35.3L4.4,1.1c-1-1-2.6-1-3.5,0c-1,1-1,2.6,0,3.4l34.7,34.2L0.8,73
		c-1,1-1,2.6,0,3.4c0.5,0.5,1.1,0.7,1.8,0.7s1.3-0.2,1.8-0.7l34.8-34.2l33.7,34.2c0.5,0.5,1.1,0.7,1.8,0.7s1.3-0.2,1.8-0.7
		c1-1,1-2.6,0-3.4L42.7,38.8L76.5,4.2C77.4,3.2,77.4,1.6,76.5,0.7z"/>
</g>
</svg>
