<?xml version="1.0" encoding="utf-8"?>
<!-- Generator: Adobe Illustrator 21.0.2, SVG Export Plug-In . SVG Version: 6.00 Build 0)  -->
<svg version="1.1" id="Layer_1" xmlns="http://www.w3.org/2000/svg" xmlns:xlink="http://www.w3.org/1999/xlink" x="0px" y="0px"
	 viewBox="0 0 100 100" style="enable-background:new 0 0 100 100;" xml:space="preserve">
<path d="M100,93.6L74.6,68.2c13.2-16.4,12.2-40.6-3-55.9C63.7,4.4,53.1,0,41.9,0C30.7,0,20.2,4.4,12.3,12.3C4.4,20.2,0,30.7,0,41.9
	s4.4,21.7,12.3,29.6c7.9,7.9,18.4,12.3,29.6,12.3c9.7,0,18.8-3.3,26.3-9.2L93.6,100L100,93.6z M41.9,74.8c-8.8,0-17-3.4-23.2-9.6
	c-6.2-6.2-9.6-14.5-9.6-23.2s3.4-17,9.6-23.2c6.2-6.2,14.5-9.6,23.2-9.6c8.8,0,17,3.4,23.2,9.6C78,31.5,78,52.3,65.2,65.1
	C58.9,71.4,50.7,74.8,41.9,74.8z"/>
</svg>
